[Header]
FileType HTR
DataType HTRS
FileVersion 1
NumSegments 64
NumFrames 2
DataFrameRate 24
EulerRotationOrder ZYX
CalibrationUnits mm
RotationUnits Degrees
GlobalAxisofGravity Y
BoneLengthAxis Y
ScaleFactor 1.0
[SegmentNames&Hierarchy]
Hips	GLOBAL
Spine	Hips
Spine1	Spine
Spine2	Spine1
Neck	Spine2
Head	Neck
LeftEye	Head
RightEye	Head
LeftShoulder	Spine2
LeftArm	LeftShoulder
LeftForeArm	LeftArm
LeftHand	LeftForeArm
LeftHandThumb1	LeftHand
LeftHandThumb2	LeftHandThumb1
LeftHandThumb3	LeftHandThumb2
LeftHandThumb4	LeftHandThumb3
LeftHandIndex1	LeftHand
LeftHandIndex2	LeftHandIndex1
LeftHandIndex3	LeftHandIndex2
LeftHandIndex4	LeftHandIndex3
LeftHandMiddle1	LeftHand
LeftHandMiddle2	LeftHandMiddle1
LeftHandMiddle3	LeftHandMiddle2
LeftHandMiddle4	LeftHandMiddle3
LeftHandRing1	LeftHand
LeftHandRing2	LeftHandRing1
LeftHandRing3	LeftHandRing2
LeftHandRing4	LeftHandRing3
LeftHandPinky1	LeftHand
LeftHandPinky2	LeftHandPinky1
LeftHandPinky3	LeftHandPinky2
LeftHandPinky4	LeftHandPinky3
RightShoulder	Spine2
RightArm	RightShoulder
RightForeArm	RightArm
RightHand	RightForeArm
RightHandPinky1	RightHand
RightHandPinky2	RightHandPinky1
RightHandPinky3	RightHandPinky2
RightHandPinky4	RightHandPinky3
RightHandRing1	RightHand
RightHandRing2	RightHandRing1
RightHandRing3	RightHandRing2
RightHandRing4	RightHandRing3
RightHandMiddle1	RightHand
RightHandMiddle2	RightHandMiddle1
RightHandMiddle3	RightHandMiddle2
RightHandMiddle4	RightHandMiddle3
RightHandIndex1	RightHand
RightHandIndex2	RightHandIndex1
RightHandIndex3	RightHandIndex2
RightHandIndex4	RightHandIndex3
RightHandThumb1	RightHand
RightHandThumb2	RightHandThumb1
RightHandThumb3	RightHandThumb2
RightHandThumb4	RightHandThumb3
LeftUpLeg	Hips
LeftLeg	LeftUpLeg
LeftFoot	LeftLeg
LeftToeBase	LeftFoot
RightUpLeg	Hips
RightLeg	RightUpLeg
RightFoot	RightLeg
RightToeBase	RightFoot
[BasePosition]
Hips	0	0	0	0	0	0	1
Spine	0	0	0	0	0	0	1
Spine1	0	0	0	0	0	0	1
Spine2	0	0	0	0	0	0	1
Neck	0	0	0	0	0	0	1
Head	0	0	0	0	0	0	1
LeftEye	0	0	0	0	0	0	1
RightEye	0	0	0	0	0	0	1
LeftShoulder	0	0	0	0	0	0	1
LeftArm	0	0	0	0	0	0	1
LeftForeArm	0	0	0	0	0	0	1
LeftHand	0	0	0	0	0	0	1
LeftHandThumb1	0	0	0	0	0	0	1
LeftHandThumb2	0	0	0	0	0	0	1
LeftHandThumb3	0	0	0	0	0	0	1
LeftHandThumb4	0	0	0	0	0	0	1
LeftHandIndex1	0	0	0	0	0	0	1
LeftHandIndex2	0	0	0	0	0	0	1
LeftHandIndex3	0	0	0	0	0	0	1
LeftHandIndex4	0	0	0	0	0	0	1
LeftHandMiddle1	0	0	0	0	0	0	1
LeftHandMiddle2	0	0	0	0	0	0	1
LeftHandMiddle3	0	0	0	0	0	0	1
LeftHandMiddle4	0	0	0	0	0	0	1
LeftHandRing1	0	0	0	0	0	0	1
LeftHandRing2	0	0	0	0	0	0	1
LeftHandRing3	0	0	0	0	0	0	1
LeftHandRing4	0	0	0	0	0	0	1
LeftHandPinky1	0	0	0	0	0	0	1
LeftHandPinky2	0	0	0	0	0	0	1
LeftHandPinky3	0	0	0	0	0	0	1
LeftHandPinky4	0	0	0	0	0	0	1
RightShoulder	0	0	0	0	0	0	1
RightArm	0	0	0	0	0	0	1
RightForeArm	0	0	0	0	0	0	1
RightHand	0	0	0	0	0	0	1
RightHandPinky1	0	0	0	0	0	0	1
RightHandPinky2	0	0	0	0	0	0	1
RightHandPinky3	0	0	0	0	0	0	1
RightHandPinky4	0	0	0	0	0	0	1
RightHandRing1	0	0	0	0	0	0	1
RightHandRing2	0	0	0	0	0	0	1
RightHandRing3	0	0	0	0	0	0	1
RightHandRing4	0	0	0	0	0	0	1
RightHandMiddle1	0	0	0	0	0	0	1
RightHandMiddle2	0	0	0	0	0	0	1
RightHandMiddle3	0	0	0	0	0	0	1
RightHandMiddle4	0	0	0	0	0	0	1
RightHandIndex1	0	0	0	0	0	0	1
RightHandIndex2	0	0	0	0	0	0	1
RightHandIndex3	0	0	0	0	0	0	1
RightHandIndex4	0	0	0	0	0	0	1
RightHandThumb1	0	0	0	0	0	0	1
RightHandThumb2	0	0	0	0	0	0	1
RightHandThumb3	0	0	0	0	0	0	1
RightHandThumb4	0	0	0	0	0	0	1
LeftUpLeg	0	0	0	0	0	0	1
LeftLeg	0	0	0	0	0	0	1
LeftFoot	0	0	0	0	0	0	1
LeftToeBase	0	0	0	0	0	0	1
RightUpLeg	0	0	0	0	0	0	1
RightLeg	0	0	0	0	0	0	1
RightFoot	0	0	0	0	0	0	1
RightToeBase	0	0	0	0	0	0	1
[Hips]
1	0.9027802944	1023.854248	16.16363144	1.933347702	1.942256808	-0.1656657159	1.0
2	2.642352581	1031.970703	80.15939331	2.695413828	1.211045742	0.05298529565	1.0
[Spine]
1	0	101.8159943	1.315000057	6.175138474	-1.275913119	-0.02117332071	1.0
2	0	101.8159943	1.315000057	5.675098419	-0.05428119749	-0.1359176785	1.0
[Spine1]
1	0	100.8349991	-10.00800037	2.447849989	-2.470368147	1.12680316	1.0
2	0	100.8349991	-10.00800037	2.161070108	-1.715626597	0.4500702918	1.0
[Spine2]
1	0	91	-13.73399925	2.41737318	-2.43031764	1.239522696	1.0
2	0	91	-13.73399925	2.142613888	-1.677520514	0.541762948	1.0
[Neck]
1	0	166.7169952	-25.16200066	-0.4859343469	2.12710309	-0.2553656995	1.0
2	0	166.7169952	-25.16200066	-0.4610610306	1.808924556	-0.3694677353	1.0
[Head]
1	0	96.17900085	16.84999847	-3.349596024	4.416703224	-2.132272005	1.0
2	0	96.17900085	16.84999847	-2.914862394	2.969303608	-2.007073164	1.0
[LeftEye]
1	30.6760006	64.09500122	92.83599854	0	0	0	1.0
2	30.6760006	64.09500122	92.83599854	0	0	0	1.0
[RightEye]
1	-30.6760006	64.09500122	92.83499908	0	0	0	1.0
2	-30.6760006	64.09500122	92.83499908	0	0	0	1.0
[LeftShoulder]
1	45.70400238	109.4599991	-26.28000069	2.640830755	-8.790821075	-14.61201191	1.0
2	45.70400238	109.4599991	-26.28000069	2.359084845	-7.608068466	-14.33947277	1.0
[LeftArm]
1	105.923996	-5.24600029	-22.32099915	25.50234985	-4.994553566	-60.64110565	1.0
2	105.923996	-5.24600029	-22.32099915	23.20174789	0.68614012	-61.80725861	1.0
[LeftForeArm]
1	278.414978	-0.0009999999311	0	3.572779406e-07	-11.06137562	-0.0001976007188	1.0
2	278.414978	-0.0009999999311	0	2.37836025e-06	-11.04128838	-0.0001924151438	1.0
[LeftHand]
1	283.2879944	0	0	2.593476534	4.102730274	-10.40044403	1.0
2	283.2879944	0	0	2.374069929	2.608227253	-14.09330177	1.0
[LeftHandThumb1]
1	24.6609993	-15.75	26.8239994	5.839803696	2.504242897	11.148386	1.0
2	24.6609993	-15.75	26.8239994	5.839803696	2.504242897	11.148386	1.0
[LeftHandThumb2]
1	32.29800034	-18.64699936	18.64699936	7.427192211	7.53940773	7.329499245	1.0
2	32.29800034	-18.64699936	18.64699936	6.704961777	7.165734768	7.579339981	1.0
[LeftHandThumb3]
1	26.52600098	-15.31499958	15.31499958	-0.7903316021	-7.547166824	21.28937531	1.0
2	26.52600098	-15.31499958	15.31499958	-0.6640118361	-7.247735977	21.24423599	1.0
[LeftHandThumb4]
1	19.54599953	-11.28499985	11.28499985	0	0	0	1.0
2	19.54599953	-11.28499985	11.28499985	0	0	0	1.0
[LeftHandIndex1]
1	91.09299469	-5.170999527	22.60099792	-0.8678549528	-4.644087791	-17.58436775	1.0
2	91.09299469	-5.170999527	22.60099792	-0.7878628969	-5.321333408	-16.56273651	1.0
[LeftHandIndex2]
1	36.76399994	0	0	-0.2017962039	1.52241075	-15.10009098	1.0
2	36.76399994	0	0	-0.2022881061	1.524239421	-15.11878872	1.0
[LeftHandIndex3]
1	28.83100128	0	0	-0.2017871737	1.522386789	-15.10013771	1.0
2	28.83100128	0	0	-0.2022878975	1.524240494	-15.11880398	1.0
[LeftHandIndex4]
1	23.92700005	0	0	0	0	0	1.0
2	23.92700005	0	0	0	0	0	1.0
[LeftHandMiddle1]
1	95.33399963	0	0	-1.623566985	4.193067551	-26.69460297	1.0
2	95.33399963	0	0	-1.559806347	3.972749233	-25.92279243	1.0
[LeftHandMiddle2]
1	36.98199844	0	0	-0.1256256551	1.205272079	-11.90109539	1.0
2	36.98199844	0	0	-0.1258457899	1.206295967	-11.91143703	1.0
[LeftHandMiddle3]
1	29.50900078	0	0	-0.1709470749	1.403122783	-13.89169598	1.0
2	29.50900078	0	0	-0.1711994559	1.404140592	-13.90195465	1.0
[LeftHandMiddle4]
1	28.3390007	0	0	0	0	0	1.0
2	28.3390007	0	0	0	0	0	1.0
[LeftHandRing1]
1	91.04499817	-0.4390000105	-18.65100098	-1.684746742	6.772585869	-27.45467377	1.0
2	91.04499817	-0.4390000105	-18.65100098	-1.596730471	6.732893944	-26.39891243	1.0
[LeftHandRing2]
1	31.54000092	0	0	-0.3293409944	1.933920503	-19.32773399	1.0
2	31.54000092	0	0	-0.3294439018	1.934187651	-19.33066177	1.0
[LeftHandRing3]
1	29.37700081	0	0	-0.3997564316	2.123910189	-21.31640625	1.0
2	29.37700081	0	0	-0.3998624086	2.124192476	-21.3191967	1.0
[LeftHandRing4]
1	26.47500038	0	0	0	0	0	1.0
2	26.47500038	0	0	0	0	0	1.0
[LeftHandPinky1]
1	80.77799988	-4.887000084	-38.06099701	-2.56427598	8.745220184	-34.04150009	1.0
2	80.77799988	-4.887000084	-38.06099701	-2.532246351	8.934522629	-33.48649216	1.0
[LeftHandPinky2]
1	36	0	0	-0.2767349482	1.776889086	-17.7028141	1.0
2	36	0	0	-0.277610898	1.779649138	-17.73117256	1.0
[LeftHandPinky3]
1	21.14200211	0	0	-0.2767287791	1.776893139	-17.70279694	1.0
2	21.14200211	0	0	-0.2776080072	1.779633164	-17.73117828	1.0
[LeftHandPinky4]
1	19.75699997	0	0	0	0	0	1.0
2	19.75699997	0	0	0	0	0	1.0
[RightShoulder]
1	-45.70000076	109.4620056	-26.28000069	1.654885292	3.830154657	15.7925005	1.0
2	-45.70000076	109.4620056	-26.28000069	1.715714216	4.224234581	15.39699173	1.0
[RightArm]
1	-105.9280014	-5.248000145	-22.32099915	23.98485756	15.96363831	53.51609039	1.0
2	-105.9280014	-5.248000145	-22.32099915	25.23273277	18.72300911	51.8078537	1.0
[RightForeArm]
1	-278.414978	0	0	9.181274436e-06	23.1985569	2.508339821e-05	1.0
2	-278.414978	0	0	7.771353125e-07	27.03317642	-1.138165044e-05	1.0
[RightHand]
1	-283.2879944	0	0.0009999999311	-1.239996076	1.073317051	5.881042004	1.0
2	-283.2879944	0	0.0009999999311	-1.25957942	-2.517195225	8.64810276	1.0
[RightHandPinky1]
1	-80.76699829	-4.885000229	-38.06000137	-1.915680528	-2.856528282	29.38045502	1.0
2	-80.76699829	-4.885000229	-38.06000137	-2.003689528	-2.535017252	29.77889252	1.0
[RightHandPinky2]
1	-36	0	0.0009999999311	-0.565759182	-2.2198596	28.61308479	1.0
2	-36	0	0.0009999999311	-0.5680012107	-2.223950386	28.67077827	1.0
[RightHandPinky3]
1	-21.14200211	0	0	-0.1770878136	-1.269623637	15.88053989	1.0
2	-21.14200211	0	0	-0.1782097667	-1.27358222	15.93140793	1.0
[RightHandPinky4]
1	-19.75699997	0	0	0	0	0	1.0
2	-19.75699997	0	0	0	0	0	1.0
[RightHandRing1]
1	-91.03599548	-0.4390000105	-18.65100098	-1.309586048	-2.233117342	24.38696861	1.0
2	-91.03599548	-0.4390000105	-18.65100098	-1.342125773	-2.056044579	24.8540535	1.0
[RightHandRing2]
1	-31.54000092	0	0	-1.497394204	-3.41129446	47.38855362	1.0
2	-31.54000092	0	0	-1.500640154	-3.414279938	47.44305038	1.0
[RightHandRing3]
1	-29.37700081	0	0	-0.3719275892	-1.81995225	23.09837723	1.0
2	-29.37700081	0	0	-0.3736364245	-1.823939085	23.15205002	1.0
[RightHandRing4]
1	-26.47500038	0	0	0	0	0	1.0
2	-26.47500038	0	0	0	0	0	1.0
[RightHandMiddle1]
1	-95.32500458	0	0	-1.153395295	0.1281813383	22.21801758	1.0
2	-95.32500458	0	0	-1.198789716	0.2595721781	22.89313316	1.0
[RightHandMiddle2]
1	-36.98199844	0	0	-0.8532724977	-2.680406809	35.31111145	1.0
2	-36.98199844	0	0	-0.8558397293	-2.684019089	35.36587906	1.0
[RightHandMiddle3]
1	-29.50900078	0	0	-0.2944052517	-1.628340125	20.52070045	1.0
2	-29.50900078	0	0	-0.2959501445	-1.632446647	20.57491875	1.0
[RightHandMiddle4]
1	-28.3390007	0	0.0009999999311	0	0	0	1.0
2	-28.3390007	0	0.0009999999311	0	0	0	1.0
[RightHandIndex1]
1	-91.08300018	-5.167999744	22.60099792	-1.018381834	4.672446251	20.65816879	1.0
2	-91.08300018	-5.167999744	22.60099792	-1.062427521	4.722921371	21.32572937	1.0
[RightHandIndex2]
1	-36.76399994	0	0	-0.3926861882	-1.867861152	23.74346924	1.0
2	-36.76399994	0	0	-0.39174968	-1.865733385	23.71486473	1.0
[RightHandIndex3]
1	-28.83100128	0	0	-0.07741322368	-0.8440698981	10.48040962	1.0
2	-28.83100128	0	0	-0.07699353993	-0.8417755365	10.45185184	1.0
[RightHandIndex4]
1	-23.92700005	0	0	0	0	0	1.0
2	-23.92700005	0	0	0	0	0	1.0
[RightHandThumb1]
1	-24.64799881	-15.72700024	26.82600021	12.78110313	-2.167885065	-4.410644054	1.0
2	-24.64799881	-15.72700024	26.82600021	12.78110313	-2.167885065	-4.410644054	1.0
[RightHandThumb2]
1	-32.29800034	-18.64699936	18.64699936	7.935191631	-18.01410484	-10.16806984	1.0
2	-32.29800034	-18.64699936	18.64699936	7.804516792	-17.66917038	-10.0968523	1.0
[RightHandThumb3]
1	-26.52600098	-15.31399918	15.31399918	-15.49313164	-4.829916	-11.25107288	1.0
2	-26.52600098	-15.31399918	15.31399918	-15.49977303	-4.814215183	-11.25603104	1.0
[RightHandThumb4]
1	-19.54599953	-11.28499985	11.28499985	0	0	0	1.0
2	-19.54599953	-11.28499985	11.28499985	0	0	0	1.0
[LeftUpLeg]
1	82.07800293	-67.51699829	-15.99599934	-28.23791122	10.31993675	-0.05418239161	1.0
2	82.07800293	-67.51699829	-15.99599934	-30.47402382	9.569832802	-1.522397161	1.0
[LeftLeg]
1	0	-443.7049866	2.845999956	57.14549255	-2.066853523	-4.189837933	1.0
2	0	-443.7049866	2.845999956	38.86009598	0.1934045106	-2.752474546	1.0
[LeftFoot]
1	0	-444.2789917	-29.8219986	0.2165790349	0.06998711079	-1.518284202	1.0
2	0	-444.2789917	-29.8219986	0.4104710519	0.1974753141	-3.455748796	1.0
[LeftToeBase]
1	0	-87.28699493	107.1060028	-8.204113007	4.361876108e-06	-3.611866362e-07	1.0
2	0	-87.28699493	107.1060028	-6.071561813	-1.884242806e-06	6.403337466e-06	1.0
[RightUpLeg]
1	-82.07800293	-67.51699829	-15.99599934	-13.44132328	-6.812338829	3.395167351	1.0
2	-82.07800293	-67.51699829	-15.99599934	-6.381672382	-8.15428257	3.06362772	1.0
[RightLeg]
1	0	-443.7049866	2.861999989	19.71055222	3.859278917	-2.533343315	1.0
2	0	-443.7049866	2.861999989	12.24567604	5.665709496	-3.196410179	1.0
[RightFoot]
1	0	-444.2770081	-29.83799934	-9.456644058	0.03466322646	0.253448844	1.0
2	0	-444.2770081	-29.83799934	-10.75632572	0.06266123801	0.8120934963	1.0
[RightToeBase]
1	0	-87.28699493	107.1060028	-4.97178793	5.493860158e-07	4.252723045e-07	1.0
2	0	-87.28699493	107.1060028	-4.618616104	-1.576356794e-06	7.130550728e-08	1.0
[EndOfFile]
